<svg xmlns="http://www.w3.org/2000/svg" version="1.1" xmlns:xlink="http://www.w3.org/1999/xlink" xmlns:svgjs="http://svgjs.dev/svgjs" width="1000" height="1069" viewBox="0 0 1000 1069"><g transform="matrix(1,0,0,1,0.7459013289916356,0.4327935222671613)"><svg viewBox="0 0 231 247" data-background-color="#333366" preserveAspectRatio="xMidYMid meet" height="1069" width="1000" xmlns="http://www.w3.org/2000/svg" xmlns:xlink="http://www.w3.org/1999/xlink"><g id="tight-bounds" transform="matrix(1,0,0,1,-0.17230320699707136,-0.09999999999999432)"><svg viewBox="0 0 231.34460641399414 247.2" height="247.2" width="231.34460641399414"><g><svg viewBox="0 0 231.34460641399414 247.2" height="247.2" width="231.34460641399414"><g><svg viewBox="0 0 231.34460641399414 247.2" height="247.2" width="231.34460641399414"><g><svg viewBox="0 0 231.34460641399414 247.2" height="247.2" width="231.34460641399414"><g><svg viewBox="0 0 231.34460641399414 247.2" height="247.2" width="231.34460641399414"><g transform="matrix(1,0,0,1,0,0)"><svg width="231.34460641399414" viewBox="3.35 -34.3 32.1 34.3" height="247.2" data-palette-color="#ffff33"><path d="M3.35 0L3.35-34.3 10.6-34.3 10.6-17.75 26.45-34.3 35.25-34.3 21.85-20.35 35.45 0 26.85 0 17-15.25 10.6-9.95 10.6 0 3.35 0Z" opacity="1" transform="matrix(1,0,0,1,0,0)" fill="#ffff33" class="undefined-text-0" data-fill-palette-color="primary" id="text-0"></path></svg></g></svg></g></svg></g></svg></g><g></g></svg></g><defs></defs></svg><rect width="231.34460641399414" height="247.2" fill="none" stroke="none" visibility="hidden"></rect></g></svg></g></svg>